<svg width="91" height="84" viewBox="0 0 91 84" fill="none" xmlns="http://www.w3.org/2000/svg">
<path d="M30.8755 0L33.1661 9.29262C34.4622 14.5506 35.1102 17.1796 36.4854 19.2995C37.7014 21.174 39.3208 22.7532 41.2253 23.9217C43.3791 25.2431 46.0236 25.8248 51.3125 26.9882L61.751 29.2844L51.3125 31.5806C46.0236 32.744 43.3791 33.3257 41.2253 34.6471C39.3208 35.8156 37.7014 37.3948 36.4854 39.2693C35.1102 41.3892 34.4622 44.0182 33.1661 49.2762L30.8755 58.5688L28.5849 49.2762C27.2888 44.0182 26.6408 41.3892 25.2656 39.2694C24.0496 37.3948 22.4302 35.8156 20.5256 34.6471C18.3719 33.3257 15.7274 32.744 10.4385 31.5806L0 29.2844L10.4385 26.9882C15.7274 25.8248 18.3719 25.2431 20.5256 23.9217C22.4302 22.7532 24.0496 21.174 25.2656 19.2995C26.6408 17.1796 27.2888 14.5506 28.5849 9.29261L30.8755 0Z" fill="#F18042"/>
<path d="M71.3168 46.2385L71.5193 47.0693C72.8019 52.3319 73.4433 54.9632 74.8133 57.087C76.0248 58.965 77.6406 60.5486 79.5427 61.722C81.6937 63.0489 84.3374 63.637 89.6248 64.8133L90.9999 65.1193L89.6248 65.4252C84.3374 66.6015 81.6937 67.1896 79.5427 68.5166C77.6406 69.69 76.0248 71.2735 74.8133 73.1516C73.4433 75.2754 72.8019 77.9067 71.5193 83.1693L71.3168 84L71.1143 83.1693C69.8317 77.9067 69.1903 75.2754 67.8203 73.1516C66.6088 71.2735 64.993 69.69 63.0909 68.5166C60.9399 67.1896 58.2962 66.6015 53.0088 65.4252L51.6337 65.1193L53.0088 64.8133C58.2962 63.637 60.9399 63.0489 63.0909 61.722C64.993 60.5486 66.6088 58.965 67.8203 57.087C69.1903 54.9632 69.8317 52.3319 71.1143 47.0692L71.3168 46.2385Z" fill="#F18042"/>
</svg>
