<svg width="191" height="50" viewBox="0 0 191 50" fill="none" xmlns="http://www.w3.org/2000/svg">
<mask id="path-1-outside-1_346_583" maskUnits="userSpaceOnUse" x="148" y="11" width="45" height="36" fill="black">
<rect fill="white" x="148" y="11" width="45" height="36"/>
<path d="M190.07 46H183.789L170.641 32.4531L157.539 46H151.234L167.523 29.1953L151.234 12.3906H157.539L190.07 46ZM190.07 12.3906L175.422 27.4609L172.305 24.25L183.789 12.3906H190.07Z"/>
</mask>
<path d="M190.07 46H183.789L170.641 32.4531L157.539 46H151.234L167.523 29.1953L151.234 12.3906H157.539L190.07 46ZM190.07 12.3906L175.422 27.4609L172.305 24.25L183.789 12.3906H190.07Z" fill="#070000"/>
<path d="M190.07 46V47H192.43L190.789 45.3045L190.07 46ZM183.789 46L183.071 46.6965L183.366 47H183.789V46ZM170.641 32.4531L171.358 31.7566L170.639 31.016L169.922 31.7579L170.641 32.4531ZM157.539 46V47H157.963L158.258 46.6952L157.539 46ZM151.234 46L150.516 45.304L148.872 47H151.234V46ZM167.523 29.1953L168.241 29.8913L168.916 29.1953L168.241 28.4993L167.523 29.1953ZM151.234 12.3906V11.3906H148.872L150.516 13.0866L151.234 12.3906ZM157.539 12.3906L158.258 11.6951L157.963 11.3906H157.539V12.3906ZM190.07 12.3906L190.787 13.0876L192.437 11.3906H190.07V12.3906ZM175.422 27.4609L174.704 28.1575L175.421 28.8961L176.139 28.1579L175.422 27.4609ZM172.305 24.25L171.586 23.5543L170.912 24.2509L171.587 24.9466L172.305 24.25ZM183.789 12.3906V11.3906H183.365L183.071 11.695L183.789 12.3906ZM190.07 45H183.789V47H190.07V45ZM184.507 45.3035L171.358 31.7566L169.923 33.1496L183.071 46.6965L184.507 45.3035ZM169.922 31.7579L156.82 45.3048L158.258 46.6952L171.359 33.1483L169.922 31.7579ZM157.539 45H151.234V47H157.539V45ZM151.952 46.696L168.241 29.8913L166.805 28.4993L150.516 45.304L151.952 46.696ZM168.241 28.4993L151.952 11.6946L150.516 13.0866L166.805 29.8913L168.241 28.4993ZM151.234 13.3906H157.539V11.3906H151.234V13.3906ZM156.821 13.0861L189.352 46.6955L190.789 45.3045L158.258 11.6951L156.821 13.0861ZM189.353 11.6936L174.705 26.7639L176.139 28.1579L190.787 13.0876L189.353 11.6936ZM176.139 26.7644L173.022 23.5534L171.587 24.9466L174.704 28.1575L176.139 26.7644ZM173.023 24.9457L184.507 13.0863L183.071 11.695L171.586 23.5543L173.023 24.9457ZM183.789 13.3906H190.07V11.3906H183.789V13.3906Z" fill="black" mask="url(#path-1-outside-1_346_583)"/>
<path d="M20.1 19.94V41H14.97V32.33H6.99V41H1.86V19.94H6.99V28.19H14.97V19.94H20.1ZM31.1234 41.21C29.5834 41.21 28.2034 40.96 26.9834 40.46C25.7634 39.96 24.7834 39.22 24.0434 38.24C23.3234 37.26 22.9434 36.08 22.9034 34.7H28.3634C28.4434 35.48 28.7134 36.08 29.1734 36.5C29.6334 36.9 30.2334 37.1 30.9734 37.1C31.7334 37.1 32.3334 36.93 32.7734 36.59C33.2134 36.23 33.4334 35.74 33.4334 35.12C33.4334 34.6 33.2534 34.17 32.8934 33.83C32.5534 33.49 32.1234 33.21 31.6034 32.99C31.1034 32.77 30.3834 32.52 29.4434 32.24C28.0834 31.82 26.9734 31.4 26.1134 30.98C25.2534 30.56 24.5134 29.94 23.8934 29.12C23.2734 28.3 22.9634 27.23 22.9634 25.91C22.9634 23.95 23.6734 22.42 25.0934 21.32C26.5134 20.2 28.3634 19.64 30.6434 19.64C32.9634 19.64 34.8334 20.2 36.2534 21.32C37.6734 22.42 38.4334 23.96 38.5334 25.94H32.9834C32.9434 25.26 32.6934 24.73 32.2334 24.35C31.7734 23.95 31.1834 23.75 30.4634 23.75C29.8434 23.75 29.3434 23.92 28.9634 24.26C28.5834 24.58 28.3934 25.05 28.3934 25.67C28.3934 26.35 28.7134 26.88 29.3534 27.26C29.9934 27.64 30.9934 28.05 32.3534 28.49C33.7134 28.95 34.8134 29.39 35.6534 29.81C36.5134 30.23 37.2534 30.84 37.8734 31.64C38.4934 32.44 38.8034 33.47 38.8034 34.73C38.8034 35.93 38.4934 37.02 37.8734 38C37.2734 38.98 36.3934 39.76 35.2334 40.34C34.0734 40.92 32.7034 41.21 31.1234 41.21ZM46.7904 24.05V28.31H53.6604V32.27H46.7904V36.89H54.5604V41H41.6604V19.94H54.5604V24.05H46.7904ZM71.5383 19.94C73.7583 19.94 75.6983 20.38 77.3583 21.26C79.0183 22.14 80.2983 23.38 81.1983 24.98C82.1183 26.56 82.5783 28.39 82.5783 30.47C82.5783 32.53 82.1183 34.36 81.1983 35.96C80.2983 37.56 79.0083 38.8 77.3283 39.68C75.6683 40.56 73.7383 41 71.5383 41H63.6483V19.94H71.5383ZM71.2083 36.56C73.1483 36.56 74.6583 36.03 75.7383 34.97C76.8183 33.91 77.3583 32.41 77.3583 30.47C77.3583 28.53 76.8183 27.02 75.7383 25.94C74.6583 24.86 73.1483 24.32 71.2083 24.32H68.7783V36.56H71.2083ZM90.2752 27.05C90.8752 26.13 91.6252 25.41 92.5252 24.89C93.4252 24.35 94.4252 24.08 95.5252 24.08V29.51H94.1152C92.8352 29.51 91.8752 29.79 91.2352 30.35C90.5952 30.89 90.2752 31.85 90.2752 33.23V41H85.1452V24.26H90.2752V27.05ZM100.257 22.52C99.3572 22.52 98.6172 22.26 98.0372 21.74C97.4772 21.2 97.1972 20.54 97.1972 19.76C97.1972 18.96 97.4772 18.3 98.0372 17.78C98.6172 17.24 99.3572 16.97 100.257 16.97C101.137 16.97 101.857 17.24 102.417 17.78C102.997 18.3 103.287 18.96 103.287 19.76C103.287 20.54 102.997 21.2 102.417 21.74C101.857 22.26 101.137 22.52 100.257 22.52ZM102.807 24.26V41H97.6772V24.26H102.807ZM113.755 36.2L117.385 24.26H122.845L116.905 41H110.575L104.635 24.26H110.125L113.755 36.2ZM140.484 32.36C140.484 32.84 140.454 33.34 140.394 33.86H128.784C128.864 34.9 129.194 35.7 129.774 36.26C130.374 36.8 131.104 37.07 131.964 37.07C133.244 37.07 134.134 36.53 134.634 35.45H140.094C139.814 36.55 139.304 37.54 138.564 38.42C137.844 39.3 136.934 39.99 135.834 40.49C134.734 40.99 133.504 41.24 132.144 41.24C130.504 41.24 129.044 40.89 127.764 40.19C126.484 39.49 125.484 38.49 124.764 37.19C124.044 35.89 123.684 34.37 123.684 32.63C123.684 30.89 124.034 29.37 124.734 28.07C125.454 26.77 126.454 25.77 127.734 25.07C129.014 24.37 130.484 24.02 132.144 24.02C133.764 24.02 135.204 24.36 136.464 25.04C137.724 25.72 138.704 26.69 139.404 27.95C140.124 29.21 140.484 30.68 140.484 32.36ZM135.234 31.01C135.234 30.13 134.934 29.43 134.334 28.91C133.734 28.39 132.984 28.13 132.084 28.13C131.224 28.13 130.494 28.38 129.894 28.88C129.314 29.38 128.954 30.09 128.814 31.01H135.234Z" fill="black"/>
</svg>
