<svg width="393" height="416" viewBox="0 0 393 416" fill="none" xmlns="http://www.w3.org/2000/svg">
<path d="M243.823 360.976C164.419 327.16 -10.3856 249.728 -15.1915 248.307L-18.2725 355.442L243.823 360.976Z" fill="#D6D6D6"/>
<path d="M-28.2655 113.05L-28.7678 0L495.612 89.4351L513.449 278.541L-28.2655 113.05Z" fill="#CFCFCF"/>
<g filter="url(#filter0_i_657_791)">
<path d="M473.697 282.108L-9.53992 121.405L-13.2054 248.866L236.892 358.271L471.313 365.012L473.697 282.108Z" fill="#555555"/>
</g>
<path d="M-10.9178 120.764L-14.7834 105.02L493.971 257.939L499.146 291.358L-10.9178 120.764Z" fill="#F18042"/>
<g filter="url(#filter1_f_657_791)">
<path d="M270.248 319.047C283.584 315.872 307.943 306.89 316.791 300.009C326.973 292.829 306.455 283.988 304.027 282.672C301.599 281.357 182.063 225.658 161.187 216.978C140.312 208.298 73.1168 223.787 56.7519 231.256C43.4125 237.344 52.6086 242.123 54.3337 243.421C56.0588 244.718 155.495 296.543 191.305 312.499C218.424 324.582 244.072 325.28 270.248 319.047Z" fill="black" fill-opacity="0.2"/>
</g>
<path fill-rule="evenodd" clip-rule="evenodd" d="M176.019 261.425L189.529 256.32L189.532 256.326C189.618 256.292 189.706 256.259 189.794 256.227C197.838 253.29 209.021 260.689 214.77 272.752C220.52 284.815 218.659 296.974 210.615 299.91C210.505 299.95 210.394 299.988 210.283 300.025L197.253 304.956L190.446 291.001C188.62 288.765 186.981 286.202 185.638 283.385C184.4 280.787 183.514 278.185 182.968 275.671L176.019 261.425Z" fill="black"/>
<ellipse cx="15.2511" cy="24.6395" rx="15.2511" ry="24.6395" transform="matrix(-0.955091 0.3486 0.422188 0.885756 190.975 256.005)" fill="black"/>
<g filter="url(#filter2_i_657_791)">
<ellipse cx="11.4389" cy="18.4805" rx="11.4389" ry="18.4805" transform="matrix(-0.955091 0.3486 0.422188 0.885756 189.477 262.79)" fill="url(#paint0_linear_657_791)"/>
</g>
<g filter="url(#filter3_di_657_791)">
<path fill-rule="evenodd" clip-rule="evenodd" d="M188.786 271.598C189.899 272.406 190.976 273.396 191.975 274.539L188.587 279.43L188.786 271.598ZM188.299 290.807L192.118 296.968C190.868 297.264 189.519 297.197 188.146 296.814L188.299 290.807ZM185.818 295.878L186.015 288.107C185.868 288.025 185.722 287.934 185.576 287.835L181.967 293.048C183.19 294.227 184.495 295.185 185.818 295.878ZM186.268 278.154L186.469 270.204C184.186 269.109 181.874 268.814 179.873 269.545C179.315 269.749 178.804 270.024 178.342 270.362L183.247 278.273C183.425 278.143 183.622 278.037 183.838 277.958C184.577 277.689 185.424 277.779 186.268 278.154ZM194.25 296.021L189.42 288.231C189.658 288.065 189.863 287.857 190.035 287.614L197.154 291.464C196.665 293.427 195.686 295.022 194.25 296.021ZM182.493 283.718C182.466 283.643 182.44 283.569 182.415 283.494L175.29 279.641C175.467 281.335 175.906 283.132 176.62 284.947L182.493 283.718ZM190.611 284.3C190.668 284.683 190.691 285.053 190.682 285.407L197.496 289.091C197.591 287.226 197.326 285.16 196.68 283.03L190.611 284.3ZM195.916 280.908L189.971 282.153C189.941 282.085 189.91 282.018 189.878 281.951C189.847 281.887 189.816 281.823 189.784 281.76L193.465 276.445C194.195 277.49 194.86 278.624 195.436 279.834C195.607 280.192 195.767 280.55 195.916 280.908ZM183.882 286.224L180.359 291.31C179.312 290.044 178.361 288.607 177.559 287.032L183.554 285.778C183.66 285.932 183.769 286.081 183.882 286.224ZM182.045 280.736L175.227 277.05C175.346 275.135 175.847 273.439 176.708 272.112L182.046 280.722L182.045 280.736Z" fill="#4C4C4C"/>
</g>
<path fill-rule="evenodd" clip-rule="evenodd" d="M176.033 261.177L189.543 256.072L189.544 256.075C189.628 256.042 189.712 256.01 189.796 255.979C197.841 253.043 209.023 260.442 214.773 272.504C220.522 284.567 218.662 296.727 210.617 299.663C210.536 299.692 210.455 299.721 210.374 299.748L197.268 304.708L190.479 290.791C188.64 288.546 186.991 285.97 185.64 283.138C184.395 280.525 183.506 277.907 182.961 275.379L176.033 261.177Z" fill="black"/>
<path d="M172.089 288.459C177.835 300.512 189.014 307.903 197.058 304.967C205.103 302.031 206.967 289.879 201.222 277.826C195.477 265.773 183.972 257.732 175.928 260.669C167.883 263.605 166.344 276.406 172.089 288.459Z" fill="#2D2C2C"/>
<g filter="url(#filter4_i_657_791)">
<ellipse cx="10.961" cy="17.3668" rx="10.961" ry="17.3668" transform="matrix(-0.930281 0.35011 0.41849 0.913716 189.425 263.444)" fill="url(#paint1_linear_657_791)"/>
</g>
<g filter="url(#filter5_di_657_791)">
<path fill-rule="evenodd" clip-rule="evenodd" d="M182.183 290.977C182.902 291.783 183.665 292.491 184.45 293.086L183.291 290.607L182.183 290.977ZM178.559 285.086C177.511 282.484 177.092 279.912 177.256 277.694L180.42 284.464L178.559 285.086ZM193.885 279.967C191.06 274.07 185.908 270.339 181.899 271.165L184.717 277.195C186.53 277.148 188.674 278.779 189.972 281.274L193.885 279.967ZM195.713 286.459C196.007 290.043 194.974 293.06 192.776 294.438L189.957 288.405C189.97 288.393 189.983 288.381 189.996 288.368L195.713 286.459Z" fill="#A9A8A8"/>
</g>
<path fill-rule="evenodd" clip-rule="evenodd" d="M76.6701 214.508L88.521 212.132L88.5227 212.139C88.598 212.123 88.6737 212.107 88.7498 212.093C95.789 210.762 103.632 218.227 106.267 228.766C108.902 239.304 105.332 248.927 98.2929 250.257C98.1897 250.277 98.0863 250.294 97.9827 250.31L86.5755 252.603L83.4034 240.403C82.2938 238.348 81.3922 236.05 80.7757 233.585C80.207 231.311 79.9273 229.079 79.9091 226.965L76.6701 214.508Z" fill="black"/>
<ellipse cx="12.4851" cy="20.5416" rx="12.4851" ry="20.5416" transform="matrix(-1.02087 0.192987 0.232116 0.928228 89.7361 212.066)" fill="black"/>
<g filter="url(#filter6_i_657_791)">
<ellipse cx="9.36433" cy="15.4071" rx="9.36433" ry="15.4071" transform="matrix(-1.02087 0.192987 0.232116 0.928228 87.3767 217.375)" fill="url(#paint2_linear_657_791)"/>
</g>
<g filter="url(#filter7_di_657_791)">
<path fill-rule="evenodd" clip-rule="evenodd" d="M85.3365 224.446C86.0986 225.244 86.8013 226.182 87.4155 227.232L83.8602 230.731L85.3365 224.446ZM81.6804 240.011L83.7223 245.449C82.6669 245.523 81.5933 245.295 80.5523 244.813L81.6804 240.011ZM78.7943 243.737L80.2679 237.463C80.1658 237.38 80.0655 237.291 79.9675 237.196L76.1523 240.951C76.9445 242.061 77.8404 243.005 78.7943 243.737ZM82.1572 229.42L83.6672 222.992C81.9964 221.807 80.1677 221.267 78.4184 221.598C77.9288 221.69 77.4662 221.847 77.0328 222.062L79.6828 229.12C79.849 229.038 80.0262 228.979 80.2136 228.943C80.86 228.821 81.5344 229.005 82.1572 229.42ZM85.6297 244.96L83.0193 238.007C83.2432 237.902 83.4475 237.757 83.6301 237.579L88.7684 241.633C88.0384 243.166 86.9697 244.336 85.6297 244.96ZM78.1451 233.44C78.1348 233.37 78.1256 233.3 78.1176 233.23L72.9838 229.18C72.8398 230.58 72.8926 232.099 73.1668 233.669L78.1451 233.44ZM84.6511 234.951C84.6334 235.277 84.5891 235.589 84.5201 235.882L89.4427 239.765C89.838 238.257 89.9719 236.536 89.8035 234.714L84.6511 234.951ZM89.5433 232.915L84.4916 233.147C84.4786 233.089 84.4648 233.031 84.4502 232.973C84.4376 232.923 84.4246 232.873 84.411 232.823L88.3102 228.985C88.7249 229.925 89.0716 230.928 89.3348 231.981C89.413 232.293 89.4825 232.605 89.5433 232.915ZM78.8521 235.66L75.1319 239.321C74.4909 238.151 73.9585 236.852 73.5719 235.462L78.6494 235.228C78.7127 235.376 78.7804 235.52 78.8521 235.66ZM78.2826 230.961L73.3689 227.084C73.7873 225.551 74.4786 224.243 75.3986 223.279L78.2826 230.961Z" fill="#4C4C4C"/>
</g>
<path fill-rule="evenodd" clip-rule="evenodd" d="M76.6244 214.78L88.4753 212.404L88.4759 212.406C88.5506 212.39 88.6256 212.375 88.7011 212.361C95.7403 211.03 103.583 218.494 106.218 229.033C108.854 239.572 105.283 249.194 98.2442 250.525C98.1758 250.538 98.1074 250.55 98.0388 250.561L86.5298 252.875L83.3584 240.678C82.2471 238.62 81.3442 236.321 80.727 233.852C80.1577 231.576 79.878 229.342 79.8603 227.225L76.6244 214.78Z" fill="black"/>
<ellipse cx="12.6238" cy="20.7699" rx="12.6238" ry="20.7699" transform="matrix(-1.02087 0.192987 0.232116 0.928228 89.7843 211.867)" fill="#2C2C2C"/>
<g filter="url(#filter8_i_657_791)">
<g filter="url(#filter9_i_657_791)">
<ellipse cx="8.79092" cy="14.8673" rx="8.79092" ry="14.8673" transform="matrix(-1.00611 0.24209 0.305933 0.912585 85.2007 219.175)" fill="url(#paint3_linear_657_791)"/>
</g>
<g filter="url(#filter10_di_657_791)">
<path fill-rule="evenodd" clip-rule="evenodd" d="M76.0893 240.689C76.4992 241.306 76.9431 241.871 77.4115 242.377L76.8798 240.56L76.0893 240.689ZM73.8378 235.417C73.3476 233.315 73.3154 231.306 73.6721 229.603L75.3043 235.178L73.8378 235.417ZM87.1869 233.245C85.6339 228.127 81.8685 224.46 78.444 224.618L79.9723 229.838C81.4806 230.025 83.0432 231.615 83.7873 233.798L87.1869 233.245ZM87.8309 238.779C87.5844 241.678 86.3329 243.953 84.3454 244.777L82.8278 239.593L87.8309 238.779Z" fill="#A9A8A8"/>
</g>
</g>
<g filter="url(#filter11_ii_657_791)">
<path fill-rule="evenodd" clip-rule="evenodd" d="M252.898 213.277C253.471 213.601 253.981 213.828 254.428 213.945C259.364 215.237 300.444 236.314 309.307 244.59C317.933 252.644 317.324 257.312 317.042 259.479C317.001 259.791 316.967 260.052 316.969 260.264C316.977 261.317 316.914 263.436 316.834 266.131C316.787 267.718 316.734 269.506 316.687 271.393L316.524 277.807C316.495 278.286 316.485 278.775 316.474 279.274C316.431 281.394 316.384 283.699 314.84 286.186C312.936 289.253 303.836 300.442 260.781 311.147C246.182 314.777 229.453 309.908 218.814 305.729C215.627 304.597 212.999 303.504 211.156 302.691C210.945 302.598 210.744 302.489 210.554 302.367C210.054 302.044 209.579 301.675 209.044 301.415V301.415V301.415C208.69 301.243 208.456 300.893 208.426 300.5C208.18 297.33 207.448 293.027 206.352 288.713C205.032 283.822 203.249 278.963 201.239 275.773C196.515 268.278 186.295 258.923 178.013 261.205C168.614 263.795 169.032 275.586 169.14 278.402C169.172 279.23 169.267 279.784 169.361 280.331C169.385 280.475 169.397 280.615 169.396 280.751C169.395 281.087 169.417 281.428 169.482 281.757C169.49 281.799 169.498 281.843 169.505 281.89C169.664 282.919 168.493 283.562 167.556 283.108V283.108C167.321 282.995 167.06 282.954 166.799 282.936C166.455 282.912 166.103 282.823 165.763 282.66L97.7577 250.026C97.0367 249.68 96.4229 249.158 96.0056 248.518C95.9602 248.448 95.898 248.391 95.8231 248.355V248.355C95.6998 248.295 95.6111 248.18 95.5921 248.044C95.5737 247.913 95.5607 247.781 95.5526 247.648C95.5467 247.553 95.5319 247.459 95.5104 247.366C95.458 247.14 95.4278 246.906 95.4224 246.666C95.4008 245.716 95.4298 244.688 95.4608 243.592C95.6016 238.607 95.7826 232.201 91.4272 225.125C87.4462 218.657 81.5179 214.293 76.0008 215.663C70.4838 217.033 68.8623 222.174 68.4904 225.051C68.1251 227.876 68.2335 230.48 68.2964 231.991L68.2964 231.991C68.3217 232.599 68.3396 233.029 68.3164 233.226C68.2352 233.911 60.4978 227.753 60.0483 225.47C58.6802 218.522 58.5228 212.044 59.5106 205.052C59.6402 204.134 60.023 202.096 60.3742 200.742C60.5657 200.003 60.6866 199.236 60.7005 198.472C60.7426 196.152 61.267 193.254 61.9624 191.949C62.0323 191.818 62.1007 191.68 62.1725 191.535L62.1745 191.531C63.0204 189.822 64.3415 187.152 74.0913 183.607C87.9354 178.575 125.565 167.544 127.016 167.301C130.445 166.726 134.809 167.121 138.341 167.441C140.414 167.628 142.2 167.79 143.344 167.715C159.864 166.628 178.92 169.109 203.848 180.91C207.193 182.253 210.494 183.773 213.686 185.493C221.656 189.789 228.349 194.306 233.904 198.447C240.387 203.038 245.373 207.145 248.952 210.093L248.952 210.093C250.542 211.403 251.855 212.484 252.898 213.277Z" fill="url(#paint4_linear_657_791)"/>
</g>
<g filter="url(#filter12_ddi_657_791)">
<path d="M186.076 236.564C177.464 233.185 172.636 223.062 160.58 210.804C159.358 209.562 159.828 207.451 161.476 206.917L215.799 189.303C216.109 189.203 216.434 189.172 216.748 189.263C218.383 189.738 224.485 192.154 239.179 204.101C247.171 210.6 248.761 212.28 252.909 214.878C253.565 215.289 253.428 216.154 250.936 217.862C242.992 223.307 199.507 241.833 186.076 236.564Z" fill="url(#paint5_linear_657_791)"/>
</g>
<g filter="url(#filter13_di_657_791)">
<path d="M122.497 192.545C110.531 188.911 107.431 188.813 99.1222 188.19C93.4053 187.762 84.2981 188.274 83.2492 190.511C82.2002 192.748 93.023 200.131 97.5213 202.459C99.7198 203.597 175.654 239.322 173.313 235.268C170.43 230.274 156.94 215.873 152.356 210.016C144.715 200.251 134.462 196.18 122.497 192.545Z" fill="url(#paint6_linear_657_791)"/>
</g>
<g filter="url(#filter14_di_657_791)">
<path d="M95.3535 185.193L146.367 168.403C146.367 168.403 145.225 168.725 139.023 168.487C136.859 168.404 83.911 186.004 83.5202 186.29L95.3535 185.193Z" fill="url(#paint7_linear_657_791)"/>
</g>
<g filter="url(#filter15_f_657_791)">
<path d="M208.685 261.522C189.471 253.108 178.814 242.887 167.348 233.501C201.95 243.449 274.35 265.136 273.175 266.398C271.707 267.975 266.422 269.757 248.997 270.345C231.842 270.924 210.885 262.485 208.685 261.522Z" fill="url(#paint8_linear_657_791)" fill-opacity="0.21"/>
</g>
<g filter="url(#filter16_f_657_791)">
<path d="M284.617 225.614C283.534 224.789 269.993 211.829 259.773 205.288C267.979 220.2 286.728 252.636 288.551 252.522C290.83 252.38 301.277 250.934 304.499 244.799C307.671 238.759 285.971 226.644 284.617 225.614Z" fill="url(#paint9_linear_657_791)" fill-opacity="0.13"/>
</g>
<g filter="url(#filter17_di_657_791)">
<path d="M140.201 236.258C140.21 235.883 139.993 235.545 139.636 235.382L133.89 232.755C133.165 232.423 132.273 232.941 132.254 233.704V233.704C132.244 234.082 132.463 234.422 132.823 234.585L138.573 237.205C139.295 237.533 140.182 237.018 140.201 236.258V236.258Z" fill="#323232"/>
</g>
<g filter="url(#filter18_di_657_791)">
<path d="M103.421 220.924C103.43 220.549 103.213 220.211 102.856 220.048L97.1097 217.421C96.3851 217.089 95.4929 217.607 95.4736 218.37V218.37C95.464 218.748 95.6831 219.088 96.0422 219.251L101.793 221.871C102.514 222.199 103.401 221.684 103.421 220.924V220.924Z" fill="#323232"/>
</g>
<g filter="url(#filter19_f_657_791)">
<path d="M155.568 274.439L101.111 249.385C99.9237 248.838 99.02 247.817 98.6352 246.569C97.0315 241.37 94.6744 233.298 94.6619 231.478C94.6442 228.891 168.824 262.099 166.051 267.882C165.91 268.175 165.78 268.469 165.66 268.761C164.165 272.403 159.164 276.094 155.568 274.439Z" fill="url(#paint10_linear_657_791)" fill-opacity="0.12"/>
</g>
<path d="M224.076 230.072L180.543 200.652C175.444 201.728 163.796 205.967 161.58 206.636C158.709 207.503 158.222 208.014 158.222 208.014C158.203 208.769 158.634 209.11 159.986 210.324C161.925 212.065 162.744 212.864 167.513 218.49C174.382 226.593 179.574 234.101 184.687 236.001C188.755 237.512 195.124 238.905 204.298 236.498C212.499 234.347 217.578 231.81 224.076 230.072Z" fill="#C4C4C4" fill-opacity="0.2"/>
<g opacity="0.17" filter="url(#filter20_f_657_791)">
<path d="M301.979 254.482C289.709 262.55 262.583 273.839 250.561 275.361" stroke="url(#paint11_linear_657_791)" stroke-width="75.7446" stroke-linecap="round" stroke-linejoin="round"/>
</g>
<g filter="url(#filter21_ddii_657_791)">
<path d="M311.107 257.77C313.394 255.195 312.961 253.054 312.695 249.845C312.662 249.442 312.542 249.045 312.476 248.646C312.224 247.117 315.94 252.392 316.276 256.063C316.395 257.367 316.283 258.023 316.114 259.219C316.036 259.767 314.664 263.086 314.837 263.815C315.01 264.543 314.464 269.52 314.473 270.274C314.483 271.029 310.755 276.547 301.197 281.717C293.258 286.012 281.947 288.677 280.792 288.793C279.636 288.909 278.593 285.488 277.762 285.28C275.586 284.734 269.069 286.654 266.642 287.126C263.811 287.676 257.204 288.942 250.044 287.95C241.188 286.723 239.852 285.802 231.786 281.692C228.749 280.145 226.239 277.824 224.39 275.587C222.34 273.107 224.45 270.75 227.51 271.71C233.777 273.677 243.051 276.336 253.273 277.518C272.829 279.779 288.518 271.996 290.766 270.877C300.214 266.173 305.158 264.47 311.107 257.77Z" fill="#272727"/>
</g>
<mask id="mask0_657_791" style="mask-type:alpha" maskUnits="userSpaceOnUse" x="223" y="254" width="95" height="35">
<path d="M311.107 257.736C311.23 257.597 311.345 257.457 311.454 257.316C313.234 254.995 316.79 253.277 317.225 256.205V256.205C317.345 257.509 317.288 258.334 317.12 259.531C317.043 260.078 314.668 263.05 314.842 263.778C315.015 264.506 314.472 269.484 314.483 270.238C314.493 270.993 310.769 276.512 301.215 281.688C293.279 285.988 281.97 288.659 280.814 288.775C279.659 288.892 278.614 285.472 277.782 285.264C275.606 284.719 269.09 286.644 266.664 287.116C263.833 287.668 257.227 288.938 250.067 287.95C241.21 286.728 239.873 285.808 231.804 281.702C228.766 280.156 226.253 277.836 224.403 275.601C222.351 273.122 224.462 270.765 227.525 271.724C233.793 273.687 243.067 276.34 253.288 277.516C272.845 279.766 288.528 271.974 290.775 270.854C300.22 266.144 305.163 264.439 311.107 257.736Z" fill="#999999"/>
</mask>
<g mask="url(#mask0_657_791)">
<g filter="url(#filter22_d_657_791)">
<path d="M237.923 274.184L260.929 275.072C261.006 275.557 261.013 276.124 260.839 276.684C260.504 277.761 259.197 279.665 253.508 280.189C251.861 280.341 249.552 280.277 247.186 279.821C244.808 279.363 242.509 278.535 240.777 277.255C239.962 276.654 238.898 275.439 237.923 274.184Z" stroke="white" stroke-opacity="0.9" stroke-width="3.41524"/>
</g>
<g filter="url(#filter23_d_657_791)">
<path d="M309.601 256.336L312.319 252.905C312.63 254.007 312.667 255.324 311.907 256.677C311.743 256.969 311.588 257.043 311.567 257.052C311.565 257.052 311.563 257.051 311.56 257.051C311.541 257.048 311.455 257.03 311.311 256.928C310.766 256.546 310.097 256.402 309.601 256.336Z" stroke="white" stroke-opacity="0.9" stroke-width="3.41524"/>
</g>
</g>
<defs>
<filter id="filter0_i_657_791" x="-13.2054" y="121.405" width="486.902" height="314.607" filterUnits="userSpaceOnUse" color-interpolation-filters="sRGB">
<feFlood flood-opacity="0" result="BackgroundImageFix"/>
<feBlend mode="normal" in="SourceGraphic" in2="BackgroundImageFix" result="shape"/>
<feColorMatrix in="SourceAlpha" type="matrix" values="0 0 0 0 0 0 0 0 0 0 0 0 0 0 0 0 0 0 127 0" result="hardAlpha"/>
<feOffset dy="71"/>
<feGaussianBlur stdDeviation="111"/>
<feComposite in2="hardAlpha" operator="arithmetic" k2="-1" k3="1"/>
<feColorMatrix type="matrix" values="0 0 0 0 0 0 0 0 0 0 0 0 0 0 0 0 0 0 0.47 0"/>
<feBlend mode="normal" in2="shape" result="effect1_innerShadow_657_791"/>
</filter>
<filter id="filter1_f_657_791" x="39.6404" y="204.409" width="289.967" height="128.506" filterUnits="userSpaceOnUse" color-interpolation-filters="sRGB">
<feFlood flood-opacity="0" result="BackgroundImageFix"/>
<feBlend mode="normal" in="SourceGraphic" in2="BackgroundImageFix" result="shape"/>
<feGaussianBlur stdDeviation="5" result="effect1_foregroundBlur_657_791"/>
</filter>
<filter id="filter2_i_657_791" x="172.928" y="266.295" width="26.8524" height="33.7036" filterUnits="userSpaceOnUse" color-interpolation-filters="sRGB">
<feFlood flood-opacity="0" result="BackgroundImageFix"/>
<feBlend mode="normal" in="SourceGraphic" in2="BackgroundImageFix" result="shape"/>
<feColorMatrix in="SourceAlpha" type="matrix" values="0 0 0 0 0 0 0 0 0 0 0 0 0 0 0 0 0 0 127 0" result="hardAlpha"/>
<feMorphology radius="1.14765" operator="erode" in="SourceAlpha" result="effect1_innerShadow_657_791"/>
<feOffset/>
<feGaussianBlur stdDeviation="0.573823"/>
<feComposite in2="hardAlpha" operator="arithmetic" k2="-1" k3="1"/>
<feColorMatrix type="matrix" values="0 0 0 0 0 0 0 0 0 0 0 0 0 0 0 0 0 0 0.25 0"/>
<feBlend mode="normal" in2="shape" result="effect1_innerShadow_657_791"/>
</filter>
<filter id="filter3_di_657_791" x="171.784" y="268.914" width="26.4193" height="30.5337" filterUnits="userSpaceOnUse" color-interpolation-filters="sRGB">
<feFlood flood-opacity="0" result="BackgroundImageFix"/>
<feColorMatrix in="SourceAlpha" type="matrix" values="0 0 0 0 0 0 0 0 0 0 0 0 0 0 0 0 0 0 127 0" result="hardAlpha"/>
<feOffset dy="0.459058"/>
<feGaussianBlur stdDeviation="0.344294"/>
<feColorMatrix type="matrix" values="0 0 0 0 1 0 0 0 0 1 0 0 0 0 1 0 0 0 0.41 0"/>
<feBlend mode="normal" in2="BackgroundImageFix" result="effect1_dropShadow_657_791"/>
<feBlend mode="normal" in="SourceGraphic" in2="effect1_dropShadow_657_791" result="shape"/>
<feColorMatrix in="SourceAlpha" type="matrix" values="0 0 0 0 0 0 0 0 0 0 0 0 0 0 0 0 0 0 127 0" result="hardAlpha"/>
<feOffset dx="-3.44294" dy="2.29529"/>
<feGaussianBlur stdDeviation="1.72147"/>
<feComposite in2="hardAlpha" operator="arithmetic" k2="-1" k3="1"/>
<feColorMatrix type="matrix" values="0 0 0 0 0 0 0 0 0 0 0 0 0 0 0 0 0 0 0.25 0"/>
<feBlend mode="normal" in2="shape" result="effect2_innerShadow_657_791"/>
</filter>
<filter id="filter4_i_657_791" x="173.974" y="266.82" width="25.0456" height="32.659" filterUnits="userSpaceOnUse" color-interpolation-filters="sRGB">
<feFlood flood-opacity="0" result="BackgroundImageFix"/>
<feBlend mode="normal" in="SourceGraphic" in2="BackgroundImageFix" result="shape"/>
<feColorMatrix in="SourceAlpha" type="matrix" values="0 0 0 0 0 0 0 0 0 0 0 0 0 0 0 0 0 0 127 0" result="hardAlpha"/>
<feMorphology radius="2.84604" operator="erode" in="SourceAlpha" result="effect1_innerShadow_657_791"/>
<feOffset/>
<feGaussianBlur stdDeviation="1.42302"/>
<feComposite in2="hardAlpha" operator="arithmetic" k2="-1" k3="1"/>
<feColorMatrix type="matrix" values="0 0 0 0 0 0 0 0 0 0 0 0 0 0 0 0 0 0 0.25 0"/>
<feBlend mode="normal" in2="shape" result="effect1_innerShadow_657_791"/>
</filter>
<filter id="filter5_di_657_791" x="173.582" y="270.808" width="23.3936" height="26.0568" filterUnits="userSpaceOnUse" color-interpolation-filters="sRGB">
<feFlood flood-opacity="0" result="BackgroundImageFix"/>
<feColorMatrix in="SourceAlpha" type="matrix" values="0 0 0 0 0 0 0 0 0 0 0 0 0 0 0 0 0 0 127 0" result="hardAlpha"/>
<feOffset dy="0.970617"/>
<feGaussianBlur stdDeviation="0.606636"/>
<feColorMatrix type="matrix" values="0 0 0 0 1 0 0 0 0 1 0 0 0 0 1 0 0 0 0.59 0"/>
<feBlend mode="normal" in2="BackgroundImageFix" result="effect1_dropShadow_657_791"/>
<feBlend mode="normal" in="SourceGraphic" in2="effect1_dropShadow_657_791" result="shape"/>
<feColorMatrix in="SourceAlpha" type="matrix" values="0 0 0 0 0 0 0 0 0 0 0 0 0 0 0 0 0 0 127 0" result="hardAlpha"/>
<feOffset dx="-3.63981" dy="2.42654"/>
<feGaussianBlur stdDeviation="1.81991"/>
<feComposite in2="hardAlpha" operator="arithmetic" k2="-1" k3="1"/>
<feColorMatrix type="matrix" values="0 0 0 0 0 0 0 0 0 0 0 0 0 0 0 0 0 0 0.25 0"/>
<feBlend mode="normal" in2="shape" result="effect2_innerShadow_657_791"/>
</filter>
<filter id="filter6_i_657_791" x="71.1836" y="219.067" width="20.4191" height="28.8331" filterUnits="userSpaceOnUse" color-interpolation-filters="sRGB">
<feFlood flood-opacity="0" result="BackgroundImageFix"/>
<feBlend mode="normal" in="SourceGraphic" in2="BackgroundImageFix" result="shape"/>
<feColorMatrix in="SourceAlpha" type="matrix" values="0 0 0 0 0 0 0 0 0 0 0 0 0 0 0 0 0 0 127 0" result="hardAlpha"/>
<feMorphology radius="0.947741" operator="erode" in="SourceAlpha" result="effect1_innerShadow_657_791"/>
<feOffset/>
<feGaussianBlur stdDeviation="0.47387"/>
<feComposite in2="hardAlpha" operator="arithmetic" k2="-1" k3="1"/>
<feColorMatrix type="matrix" values="0 0 0 0 0 0 0 0 0 0 0 0 0 0 0 0 0 0 0.25 0"/>
<feBlend mode="normal" in2="shape" result="effect1_innerShadow_657_791"/>
</filter>
<filter id="filter7_di_657_791" x="70.0627" y="221.312" width="20.3807" height="26.0461" filterUnits="userSpaceOnUse" color-interpolation-filters="sRGB">
<feFlood flood-opacity="0" result="BackgroundImageFix"/>
<feColorMatrix in="SourceAlpha" type="matrix" values="0 0 0 0 0 0 0 0 0 0 0 0 0 0 0 0 0 0 127 0" result="hardAlpha"/>
<feOffset dy="0.379096"/>
<feGaussianBlur stdDeviation="0.284322"/>
<feColorMatrix type="matrix" values="0 0 0 0 1 0 0 0 0 1 0 0 0 0 1 0 0 0 0.41 0"/>
<feBlend mode="normal" in2="BackgroundImageFix" result="effect1_dropShadow_657_791"/>
<feBlend mode="normal" in="SourceGraphic" in2="effect1_dropShadow_657_791" result="shape"/>
<feColorMatrix in="SourceAlpha" type="matrix" values="0 0 0 0 0 0 0 0 0 0 0 0 0 0 0 0 0 0 127 0" result="hardAlpha"/>
<feOffset dx="-2.84322" dy="1.89548"/>
<feGaussianBlur stdDeviation="1.42161"/>
<feComposite in2="hardAlpha" operator="arithmetic" k2="-1" k3="1"/>
<feColorMatrix type="matrix" values="0 0 0 0 0 0 0 0 0 0 0 0 0 0 0 0 0 0 0.25 0"/>
<feBlend mode="normal" in2="shape" result="effect2_innerShadow_657_791"/>
</filter>
<filter id="filter8_i_657_791" x="70.9567" y="221.135" width="19.8955" height="27.4711" filterUnits="userSpaceOnUse" color-interpolation-filters="sRGB">
<feFlood flood-opacity="0" result="BackgroundImageFix"/>
<feBlend mode="normal" in="SourceGraphic" in2="BackgroundImageFix" result="shape"/>
<feColorMatrix in="SourceAlpha" type="matrix" values="0 0 0 0 0 0 0 0 0 0 0 0 0 0 0 0 0 0 127 0" result="hardAlpha"/>
<feMorphology radius="2.84604" operator="erode" in="SourceAlpha" result="effect1_innerShadow_657_791"/>
<feOffset/>
<feGaussianBlur stdDeviation="1.42302"/>
<feComposite in2="hardAlpha" operator="arithmetic" k2="-1" k3="1"/>
<feColorMatrix type="matrix" values="0 0 0 0 0 0 0 0 0 0 0 0 0 0 0 0 0 0 0.25 0"/>
<feBlend mode="normal" in2="shape" result="effect1_innerShadow_657_791"/>
</filter>
<filter id="filter9_i_657_791" x="70.9567" y="221.135" width="19.8955" height="27.4711" filterUnits="userSpaceOnUse" color-interpolation-filters="sRGB">
<feFlood flood-opacity="0" result="BackgroundImageFix"/>
<feBlend mode="normal" in="SourceGraphic" in2="BackgroundImageFix" result="shape"/>
<feColorMatrix in="SourceAlpha" type="matrix" values="0 0 0 0 0 0 0 0 0 0 0 0 0 0 0 0 0 0 127 0" result="hardAlpha"/>
<feMorphology radius="0.852955" operator="erode" in="SourceAlpha" result="effect1_innerShadow_657_791"/>
<feOffset/>
<feGaussianBlur stdDeviation="0.426477"/>
<feComposite in2="hardAlpha" operator="arithmetic" k2="-1" k3="1"/>
<feColorMatrix type="matrix" values="0 0 0 0 0 0 0 0 0 0 0 0 0 0 0 0 0 0 0.25 0"/>
<feBlend mode="normal" in2="shape" result="effect1_innerShadow_657_791"/>
</filter>
<filter id="filter10_di_657_791" x="69.7932" y="224.37" width="19.251" height="22.8333" filterUnits="userSpaceOnUse" color-interpolation-filters="sRGB">
<feFlood flood-opacity="0" result="BackgroundImageFix"/>
<feColorMatrix in="SourceAlpha" type="matrix" values="0 0 0 0 0 0 0 0 0 0 0 0 0 0 0 0 0 0 127 0" result="hardAlpha"/>
<feOffset dy="0.970618"/>
<feGaussianBlur stdDeviation="0.606636"/>
<feColorMatrix type="matrix" values="0 0 0 0 1 0 0 0 0 1 0 0 0 0 1 0 0 0 0.59 0"/>
<feBlend mode="normal" in2="BackgroundImageFix" result="effect1_dropShadow_657_791"/>
<feBlend mode="normal" in="SourceGraphic" in2="effect1_dropShadow_657_791" result="shape"/>
<feColorMatrix in="SourceAlpha" type="matrix" values="0 0 0 0 0 0 0 0 0 0 0 0 0 0 0 0 0 0 127 0" result="hardAlpha"/>
<feOffset dx="-3.63982" dy="2.42654"/>
<feGaussianBlur stdDeviation="1.81991"/>
<feComposite in2="hardAlpha" operator="arithmetic" k2="-1" k3="1"/>
<feColorMatrix type="matrix" values="0 0 0 0 0 0 0 0 0 0 0 0 0 0 0 0 0 0 0.25 0"/>
<feBlend mode="normal" in2="shape" result="effect2_innerShadow_657_791"/>
</filter>
<filter id="filter11_ii_657_791" x="58.8767" y="144.24" width="275.374" height="168.18" filterUnits="userSpaceOnUse" color-interpolation-filters="sRGB">
<feFlood flood-opacity="0" result="BackgroundImageFix"/>
<feBlend mode="normal" in="SourceGraphic" in2="BackgroundImageFix" result="shape"/>
<feColorMatrix in="SourceAlpha" type="matrix" values="0 0 0 0 0 0 0 0 0 0 0 0 0 0 0 0 0 0 127 0" result="hardAlpha"/>
<feOffset dx="17.0762" dy="-22.7683"/>
<feGaussianBlur stdDeviation="68.3049"/>
<feComposite in2="hardAlpha" operator="arithmetic" k2="-1" k3="1"/>
<feColorMatrix type="matrix" values="0 0 0 0 0 0 0 0 0 0 0 0 0 0 0 0 0 0 0.07 0"/>
<feBlend mode="normal" in2="shape" result="effect1_innerShadow_657_791"/>
<feColorMatrix in="SourceAlpha" type="matrix" values="0 0 0 0 0 0 0 0 0 0 0 0 0 0 0 0 0 0 127 0" result="hardAlpha"/>
<feOffset dy="-2.84604"/>
<feGaussianBlur stdDeviation="5.69207"/>
<feComposite in2="hardAlpha" operator="arithmetic" k2="-1" k3="1"/>
<feColorMatrix type="matrix" values="0 0 0 0 0 0 0 0 0 0 0 0 0 0 0 0 0 0 0.09 0"/>
<feBlend mode="normal" in2="effect1_innerShadow_657_791" result="effect2_innerShadow_657_791"/>
</filter>
<filter id="filter12_ddi_657_791" x="155.301" y="185.766" width="100.239" height="55.1735" filterUnits="userSpaceOnUse" color-interpolation-filters="sRGB">
<feFlood flood-opacity="0" result="BackgroundImageFix"/>
<feColorMatrix in="SourceAlpha" type="matrix" values="0 0 0 0 0 0 0 0 0 0 0 0 0 0 0 0 0 0 127 0" result="hardAlpha"/>
<feOffset dx="-2.29529" dy="1.14765"/>
<feGaussianBlur stdDeviation="1.14765"/>
<feColorMatrix type="matrix" values="0 0 0 0 1 0 0 0 0 1 0 0 0 0 1 0 0 0 0.28 0"/>
<feBlend mode="normal" in2="BackgroundImageFix" result="effect1_dropShadow_657_791"/>
<feColorMatrix in="SourceAlpha" type="matrix" values="0 0 0 0 0 0 0 0 0 0 0 0 0 0 0 0 0 0 127 0" result="hardAlpha"/>
<feOffset dy="-1.14765"/>
<feGaussianBlur stdDeviation="1.14765"/>
<feColorMatrix type="matrix" values="0 0 0 0 1 0 0 0 0 1 0 0 0 0 1 0 0 0 0.56 0"/>
<feBlend mode="normal" in2="effect1_dropShadow_657_791" result="effect2_dropShadow_657_791"/>
<feBlend mode="normal" in="SourceGraphic" in2="effect2_dropShadow_657_791" result="shape"/>
<feColorMatrix in="SourceAlpha" type="matrix" values="0 0 0 0 0 0 0 0 0 0 0 0 0 0 0 0 0 0 127 0" result="hardAlpha"/>
<feOffset dx="-1.14765" dy="3.44294"/>
<feGaussianBlur stdDeviation="1.72147"/>
<feComposite in2="hardAlpha" operator="arithmetic" k2="-1" k3="1"/>
<feColorMatrix type="matrix" values="0 0 0 0 0 0 0 0 0 0 0 0 0 0 0 0 0 0 0.75 0"/>
<feBlend mode="normal" in2="shape" result="effect3_innerShadow_657_791"/>
</filter>
<filter id="filter13_di_657_791" x="78.5874" y="188.052" width="95.9658" height="52.1273" filterUnits="userSpaceOnUse" color-interpolation-filters="sRGB">
<feFlood flood-opacity="0" result="BackgroundImageFix"/>
<feColorMatrix in="SourceAlpha" type="matrix" values="0 0 0 0 0 0 0 0 0 0 0 0 0 0 0 0 0 0 127 0" result="hardAlpha"/>
<feOffset dy="1.18682"/>
<feGaussianBlur stdDeviation="0.593408"/>
<feColorMatrix type="matrix" values="0 0 0 0 0.925374 0 0 0 0 0.925374 0 0 0 0 0.925374 0 0 0 0.37 0"/>
<feBlend mode="normal" in2="BackgroundImageFix" result="effect1_dropShadow_657_791"/>
<feBlend mode="normal" in="SourceGraphic" in2="effect1_dropShadow_657_791" result="shape"/>
<feColorMatrix in="SourceAlpha" type="matrix" values="0 0 0 0 0 0 0 0 0 0 0 0 0 0 0 0 0 0 127 0" result="hardAlpha"/>
<feOffset dx="-4.59058" dy="5.73823"/>
<feGaussianBlur stdDeviation="2.29529"/>
<feComposite in2="hardAlpha" operator="arithmetic" k2="-1" k3="1"/>
<feColorMatrix type="matrix" values="0 0 0 0 0 0 0 0 0 0 0 0 0 0 0 0 0 0 0.8 0"/>
<feBlend mode="normal" in2="shape" result="effect2_innerShadow_657_791"/>
</filter>
<filter id="filter14_di_657_791" x="78.9296" y="168.403" width="68.6239" height="22.4772" filterUnits="userSpaceOnUse" color-interpolation-filters="sRGB">
<feFlood flood-opacity="0" result="BackgroundImageFix"/>
<feColorMatrix in="SourceAlpha" type="matrix" values="0 0 0 0 0 0 0 0 0 0 0 0 0 0 0 0 0 0 127 0" result="hardAlpha"/>
<feOffset dy="1.18682"/>
<feGaussianBlur stdDeviation="0.593408"/>
<feColorMatrix type="matrix" values="0 0 0 0 0.925374 0 0 0 0 0.925374 0 0 0 0 0.925374 0 0 0 0.37 0"/>
<feBlend mode="normal" in2="BackgroundImageFix" result="effect1_dropShadow_657_791"/>
<feBlend mode="normal" in="SourceGraphic" in2="effect1_dropShadow_657_791" result="shape"/>
<feColorMatrix in="SourceAlpha" type="matrix" values="0 0 0 0 0 0 0 0 0 0 0 0 0 0 0 0 0 0 127 0" result="hardAlpha"/>
<feOffset dx="-4.59058" dy="5.73823"/>
<feGaussianBlur stdDeviation="2.29529"/>
<feComposite in2="hardAlpha" operator="arithmetic" k2="-1" k3="1"/>
<feColorMatrix type="matrix" values="0 0 0 0 0 0 0 0 0 0 0 0 0 0 0 0 0 0 0.8 0"/>
<feBlend mode="normal" in2="shape" result="effect2_innerShadow_657_791"/>
</filter>
<filter id="filter15_f_657_791" x="135.214" y="201.367" width="170.109" height="101.141" filterUnits="userSpaceOnUse" color-interpolation-filters="sRGB">
<feFlood flood-opacity="0" result="BackgroundImageFix"/>
<feBlend mode="normal" in="SourceGraphic" in2="BackgroundImageFix" result="shape"/>
<feGaussianBlur stdDeviation="16.067" result="effect1_foregroundBlur_657_791"/>
</filter>
<filter id="filter16_f_657_791" x="239.115" y="184.63" width="86.358" height="88.5499" filterUnits="userSpaceOnUse" color-interpolation-filters="sRGB">
<feFlood flood-opacity="0" result="BackgroundImageFix"/>
<feBlend mode="normal" in="SourceGraphic" in2="BackgroundImageFix" result="shape"/>
<feGaussianBlur stdDeviation="10.3288" result="effect1_foregroundBlur_657_791"/>
</filter>
<filter id="filter17_di_657_791" x="131.684" y="231.514" width="9.08609" height="8.63712" filterUnits="userSpaceOnUse" color-interpolation-filters="sRGB">
<feFlood flood-opacity="0" result="BackgroundImageFix"/>
<feColorMatrix in="SourceAlpha" type="matrix" values="0 0 0 0 0 0 0 0 0 0 0 0 0 0 0 0 0 0 127 0" result="hardAlpha"/>
<feOffset dy="-0.569207"/>
<feGaussianBlur stdDeviation="0.284604"/>
<feColorMatrix type="matrix" values="0 0 0 0 0.78755 0 0 0 0 0.78755 0 0 0 0 0.78755 0 0 0 0.19 0"/>
<feBlend mode="normal" in2="BackgroundImageFix" result="effect1_dropShadow_657_791"/>
<feBlend mode="normal" in="SourceGraphic" in2="effect1_dropShadow_657_791" result="shape"/>
<feColorMatrix in="SourceAlpha" type="matrix" values="0 0 0 0 0 0 0 0 0 0 0 0 0 0 0 0 0 0 127 0" result="hardAlpha"/>
<feOffset dy="2.84604"/>
<feGaussianBlur stdDeviation="1.42302"/>
<feComposite in2="hardAlpha" operator="arithmetic" k2="-1" k3="1"/>
<feColorMatrix type="matrix" values="0 0 0 0 0 0 0 0 0 0 0 0 0 0 0 0 0 0 0.74 0"/>
<feBlend mode="normal" in2="shape" result="effect2_innerShadow_657_791"/>
</filter>
<filter id="filter18_di_657_791" x="94.904" y="216.18" width="9.08609" height="8.63711" filterUnits="userSpaceOnUse" color-interpolation-filters="sRGB">
<feFlood flood-opacity="0" result="BackgroundImageFix"/>
<feColorMatrix in="SourceAlpha" type="matrix" values="0 0 0 0 0 0 0 0 0 0 0 0 0 0 0 0 0 0 127 0" result="hardAlpha"/>
<feOffset dy="-0.569207"/>
<feGaussianBlur stdDeviation="0.284604"/>
<feColorMatrix type="matrix" values="0 0 0 0 0.78755 0 0 0 0 0.78755 0 0 0 0 0.78755 0 0 0 0.19 0"/>
<feBlend mode="normal" in2="BackgroundImageFix" result="effect1_dropShadow_657_791"/>
<feBlend mode="normal" in="SourceGraphic" in2="effect1_dropShadow_657_791" result="shape"/>
<feColorMatrix in="SourceAlpha" type="matrix" values="0 0 0 0 0 0 0 0 0 0 0 0 0 0 0 0 0 0 127 0" result="hardAlpha"/>
<feOffset dy="2.84604"/>
<feGaussianBlur stdDeviation="1.42302"/>
<feComposite in2="hardAlpha" operator="arithmetic" k2="-1" k3="1"/>
<feColorMatrix type="matrix" values="0 0 0 0 0 0 0 0 0 0 0 0 0 0 0 0 0 0 0.74 0"/>
<feBlend mode="normal" in2="shape" result="effect2_innerShadow_657_791"/>
</filter>
<filter id="filter19_f_657_791" x="87.7761" y="224.449" width="85.2367" height="57.283" filterUnits="userSpaceOnUse" color-interpolation-filters="sRGB">
<feFlood flood-opacity="0" result="BackgroundImageFix"/>
<feBlend mode="normal" in="SourceGraphic" in2="BackgroundImageFix" result="shape"/>
<feGaussianBlur stdDeviation="3.44294" result="effect1_foregroundBlur_657_791"/>
</filter>
<filter id="filter20_f_657_791" x="201.206" y="205.13" width="150.127" height="119.582" filterUnits="userSpaceOnUse" color-interpolation-filters="sRGB">
<feFlood flood-opacity="0" result="BackgroundImageFix"/>
<feBlend mode="normal" in="SourceGraphic" in2="BackgroundImageFix" result="shape"/>
<feGaussianBlur stdDeviation="5.73823" result="effect1_foregroundBlur_657_791"/>
</filter>
<filter id="filter21_ddii_657_791" x="222.148" y="246.232" width="95.6064" height="52.4094" filterUnits="userSpaceOnUse" color-interpolation-filters="sRGB">
<feFlood flood-opacity="0" result="BackgroundImageFix"/>
<feColorMatrix in="SourceAlpha" type="matrix" values="0 0 0 0 0 0 0 0 0 0 0 0 0 0 0 0 0 0 127 0" result="hardAlpha"/>
<feOffset dy="1.07131"/>
<feGaussianBlur stdDeviation="0.714204"/>
<feColorMatrix type="matrix" values="0 0 0 0 0 0 0 0 0 0 0 0 0 0 0 0 0 0 0.57 0"/>
<feBlend mode="normal" in2="BackgroundImageFix" result="effect1_dropShadow_657_791"/>
<feColorMatrix in="SourceAlpha" type="matrix" values="0 0 0 0 0 0 0 0 0 0 0 0 0 0 0 0 0 0 127 0" result="hardAlpha"/>
<feOffset dy="-0.714204"/>
<feGaussianBlur stdDeviation="0.714204"/>
<feColorMatrix type="matrix" values="0 0 0 0 0 0 0 0 0 0 0 0 0 0 0 0 0 0 1 0"/>
<feBlend mode="normal" in2="effect1_dropShadow_657_791" result="effect2_dropShadow_657_791"/>
<feBlend mode="normal" in="SourceGraphic" in2="effect2_dropShadow_657_791" result="shape"/>
<feColorMatrix in="SourceAlpha" type="matrix" values="0 0 0 0 0 0 0 0 0 0 0 0 0 0 0 0 0 0 127 0" result="hardAlpha"/>
<feOffset dy="9.84614"/>
<feGaussianBlur stdDeviation="10.0343"/>
<feComposite in2="hardAlpha" operator="arithmetic" k2="-1" k3="1"/>
<feColorMatrix type="matrix" values="0 0 0 0 0 0 0 0 0 0 0 0 0 0 0 0 0 0 1 0"/>
<feBlend mode="normal" in2="shape" result="effect3_innerShadow_657_791"/>
<feColorMatrix in="SourceAlpha" type="matrix" values="0 0 0 0 0 0 0 0 0 0 0 0 0 0 0 0 0 0 127 0" result="hardAlpha"/>
<feOffset dy="-1.07294"/>
<feGaussianBlur stdDeviation="1.07294"/>
<feComposite in2="hardAlpha" operator="arithmetic" k2="-1" k3="1"/>
<feColorMatrix type="matrix" values="0 0 0 0 0 0 0 0 0 0 0 0 0 0 0 0 0 0 1 0"/>
<feBlend mode="normal" in2="effect3_innerShadow_657_791" result="effect4_innerShadow_657_791"/>
</filter>
<filter id="filter22_d_657_791" x="234.266" y="272.357" width="30.9843" height="12.4319" filterUnits="userSpaceOnUse" color-interpolation-filters="sRGB">
<feFlood flood-opacity="0" result="BackgroundImageFix"/>
<feColorMatrix in="SourceAlpha" type="matrix" values="0 0 0 0 0 0 0 0 0 0 0 0 0 0 0 0 0 0 127 0" result="hardAlpha"/>
<feOffset dx="1.13841" dy="1.41412"/>
<feGaussianBlur stdDeviation="0.707062"/>
<feColorMatrix type="matrix" values="0 0 0 0 1 0 0 0 0 1 0 0 0 0 1 0 0 0 0.24 0"/>
<feBlend mode="normal" in2="BackgroundImageFix" result="effect1_dropShadow_657_791"/>
<feBlend mode="normal" in="SourceGraphic" in2="effect1_dropShadow_657_791" result="shape"/>
</filter>
<filter id="filter23_d_657_791" x="305.815" y="249.731" width="11.0333" height="11.7941" filterUnits="userSpaceOnUse" color-interpolation-filters="sRGB">
<feFlood flood-opacity="0" result="BackgroundImageFix"/>
<feColorMatrix in="SourceAlpha" type="matrix" values="0 0 0 0 0 0 0 0 0 0 0 0 0 0 0 0 0 0 127 0" result="hardAlpha"/>
<feOffset dx="1.13841" dy="1.41412"/>
<feGaussianBlur stdDeviation="0.707062"/>
<feColorMatrix type="matrix" values="0 0 0 0 1 0 0 0 0 1 0 0 0 0 1 0 0 0 0.24 0"/>
<feBlend mode="normal" in2="BackgroundImageFix" result="effect1_dropShadow_657_791"/>
<feBlend mode="normal" in="SourceGraphic" in2="effect1_dropShadow_657_791" result="shape"/>
</filter>
<linearGradient id="paint0_linear_657_791" x1="26.9819" y1="28.1915" x2="28.1976" y2="9.17797" gradientUnits="userSpaceOnUse">
<stop stop-color="#3F3F3F"/>
<stop offset="1" stop-color="#5C5C5C"/>
</linearGradient>
<linearGradient id="paint1_linear_657_791" x1="25.8545" y1="26.4926" x2="26.9751" y2="8.6221" gradientUnits="userSpaceOnUse">
<stop stop-color="#AAAAAA"/>
<stop offset="1" stop-color="#C2C2C2"/>
</linearGradient>
<linearGradient id="paint2_linear_657_791" x1="22.0884" y1="23.5031" x2="23.1204" y2="7.65402" gradientUnits="userSpaceOnUse">
<stop stop-color="#3F3F3F"/>
<stop offset="1" stop-color="#5C5C5C"/>
</linearGradient>
<linearGradient id="paint3_linear_657_791" x1="20.7358" y1="22.6797" x2="21.7593" y2="7.38952" gradientUnits="userSpaceOnUse">
<stop stop-color="#AAAAAA"/>
<stop offset="1" stop-color="#C2C2C2"/>
</linearGradient>
<linearGradient id="paint4_linear_657_791" x1="202.759" y1="304.566" x2="307.169" y2="167.097" gradientUnits="userSpaceOnUse">
<stop stop-color="#D8D8D8"/>
<stop offset="1" stop-color="white"/>
</linearGradient>
<linearGradient id="paint5_linear_657_791" x1="217.926" y1="146.068" x2="156.959" y2="208.53" gradientUnits="userSpaceOnUse">
<stop stop-color="#E8EAE9"/>
<stop offset="0.498386" stop-color="#707072"/>
<stop offset="1" stop-color="#2F3032"/>
</linearGradient>
<linearGradient id="paint6_linear_657_791" x1="101.997" y1="331.573" x2="157.386" y2="223.368" gradientUnits="userSpaceOnUse">
<stop stop-color="#E8EAE9"/>
<stop offset="0.498386" stop-color="#707072"/>
<stop offset="1" stop-color="#2F3032"/>
</linearGradient>
<linearGradient id="paint7_linear_657_791" x1="77.131" y1="223.656" x2="108.372" y2="174.442" gradientUnits="userSpaceOnUse">
<stop stop-color="#E8EAE9"/>
<stop offset="0.498386" stop-color="#707072"/>
<stop offset="1" stop-color="#2F3032"/>
</linearGradient>
<linearGradient id="paint8_linear_657_791" x1="216.193" y1="271.622" x2="223.386" y2="249.702" gradientUnits="userSpaceOnUse">
<stop stop-color="#ECEAEA"/>
<stop offset="1" stop-color="white" stop-opacity="0"/>
</linearGradient>
<linearGradient id="paint9_linear_657_791" x1="312.643" y1="235.639" x2="281.624" y2="247.07" gradientUnits="userSpaceOnUse">
<stop stop-color="#ECEAEA"/>
<stop offset="1" stop-color="white" stop-opacity="0"/>
</linearGradient>
<linearGradient id="paint10_linear_657_791" x1="140.71" y1="273.403" x2="148.848" y2="255.016" gradientUnits="userSpaceOnUse">
<stop stop-color="#040404"/>
<stop offset="1" stop-color="#3C3C3C" stop-opacity="0"/>
</linearGradient>
<linearGradient id="paint11_linear_657_791" x1="276.775" y1="275.791" x2="272.448" y2="265.518" gradientUnits="userSpaceOnUse">
<stop stop-color="#4B4B4B"/>
<stop offset="0.899322" stop-opacity="0"/>
</linearGradient>
</defs>
</svg>
